<svg width="160" height="45" viewBox="0 0 160 45" fill="none" xmlns="http://www.w3.org/2000/svg">
<g clip-path="url(#clip0_187_1886)">
<path d="M33.7206 41.9628C32.6055 42.4775 31.5145 43.0599 30.3677 43.4956C25.5317 45.3338 20.6194 45.5087 15.6959 43.9039C9.38801 41.8453 4.81107 37.7907 2.01224 31.759C0.599533 28.7157 -0.132124 25.4975 0.0196976 22.1523C0.454576 12.8028 4.88314 6.00689 13.3525 1.99521C17.2561 0.145045 21.4282 -0.378171 25.7135 0.268571C28.3344 0.654611 30.8664 1.50139 33.1922 2.76975C33.3843 2.87526 33.5911 2.95247 33.7926 3.04253C33.9453 3.15833 34.0894 3.28699 34.2507 3.38563C36.8058 4.95437 39.0153 7.02636 40.7447 9.47564C43.366 13.1965 44.7489 17.3329 44.8936 21.8847C44.9506 23.7423 44.7728 25.5997 44.3644 27.4128C43.462 31.4245 41.5956 34.9216 38.7976 37.9211C37.306 39.5165 35.5733 40.816 33.7206 41.9628Z" fill="#004AAC"/>
<path d="M33.7217 41.9627C35.5744 40.8159 37.3071 39.5164 38.7978 37.9184C41.5958 34.9163 43.4622 31.4219 44.3646 27.4102C44.773 25.5971 44.9508 23.7397 44.8938 21.882C44.7566 17.3296 43.3736 13.1933 40.7449 9.47297C39.0155 7.0237 36.8061 4.95171 34.2509 3.38296C34.0896 3.28261 33.9455 3.15395 33.7929 3.03987C34.6506 2.60156 35.4766 2.09635 36.3661 1.73609C39.3296 0.520665 42.4227 -0.108931 45.6298 0.0317394C50.7634 0.256469 55.3601 1.95653 59.316 5.27258C63.2968 8.61008 65.8237 12.8499 66.8933 17.9226C67.8789 22.5965 67.408 27.1563 65.4695 31.5299C63.0609 36.9715 59.0784 40.8562 53.6249 43.1953C49.5317 44.9511 45.2644 45.3971 40.8796 44.5986C38.3586 44.1426 35.9364 43.2506 33.7217 41.9627Z" fill="#38B5FE"/>
<path d="M84.059 25.0248C86.8347 24.9896 88.9104 26.8826 89.1532 29.6437C89.2578 30.8317 89.2003 32 88.7552 33.1099C87.8159 35.4515 85.9246 36.4551 83.5401 36.6601C81.6024 36.8317 80.007 36.1498 78.9005 34.4977C78.24 33.513 78.035 32.3894 78.0342 31.2271C78.0342 28.961 78.741 27.0508 80.8167 25.8568C81.7448 25.3233 82.8513 25.0402 84.059 25.0248ZM87.3879 30.8986C87.3768 29.6 87.2009 28.4506 86.5791 27.4084C85.5215 25.6372 83.3025 25.2109 81.7337 26.5241C81.2757 26.9018 80.8923 27.3617 80.6031 27.8802C79.5155 29.9045 79.6107 31.9974 80.4513 34.074C80.9806 35.3795 82.0107 36.0674 83.4234 36.1232C84.8619 36.1798 85.8954 35.509 86.5679 34.261C87.1296 33.2308 87.4123 32.0717 87.3879 30.8986Z" fill="#004AAC"/>
<path d="M134.801 30.5899C134.63 31.4133 134.533 32.2625 134.267 33.055C133.409 35.6043 130.836 36.5667 129.055 36.673C127.096 36.7905 125.49 36.1515 124.385 34.4738C123.68 33.4024 123.502 32.1844 123.528 30.933C123.614 26.8261 127.216 24.131 131.128 25.2247C133.135 25.7848 134.497 27.5166 134.659 29.721C134.679 30.0015 134.659 30.2854 134.659 30.5676L134.801 30.5899ZM132.895 31.1045C132.883 29.5829 132.698 28.3743 132.012 27.2944C130.982 25.6647 128.846 25.2547 127.345 26.4435C126.843 26.837 126.423 27.3251 126.11 27.8802C125.001 29.9165 125.109 32.0275 125.971 34.1127C126.502 35.3993 127.53 36.0666 128.923 36.1232C130.343 36.1798 131.377 35.5228 132.049 34.3005C132.64 33.2266 132.918 32.0643 132.898 31.1045H132.895Z" fill="#004AAC"/>
<path d="M109.646 8.52343C111.249 8.52343 112.826 8.4634 114.394 8.55518C114.98 8.58949 115.605 8.88968 116.11 9.22335C116.453 9.44338 116.736 9.74608 116.932 10.1037C117.128 10.4613 117.232 10.8625 117.233 11.2704C117.234 11.6783 117.132 12.0799 116.938 12.4384C116.743 12.7969 116.462 13.1009 116.119 13.3225C115.504 13.7334 114.767 13.9607 114.05 14.2884L118.511 19.6922C117.861 19.7711 117.288 19.8637 116.709 19.8955C116.585 19.9032 116.413 19.7402 116.323 19.6133C115.187 18.0127 114.048 16.4139 112.944 14.791C112.694 14.423 112.429 14.2626 112 14.3192C111.766 14.3335 111.532 14.3335 111.298 14.3192V19.6621H109.642L109.646 8.52343ZM111.3 13.7849C111.888 13.7849 112.44 13.8235 112.983 13.7771C114.581 13.6425 115.385 12.8722 115.429 11.4895C115.466 10.2947 114.553 9.09898 113.498 9.08097C112.767 9.0681 112.035 9.21134 111.3 9.28596V13.7849Z" fill="#004AAC"/>
<path d="M137.581 27.2918V36.456H136.843V25.2264C137.206 25.2264 137.562 25.1989 137.909 25.2401C138.054 25.2572 138.213 25.3962 138.313 25.5223C140.305 28.0246 142.291 30.5301 144.273 33.0387C144.359 33.1417 144.445 33.242 144.6 33.4359V25.2487H145.351V36.7708C145.145 36.6078 144.974 36.5135 144.861 36.3771C142.534 33.4773 140.211 30.5741 137.893 27.6675C137.82 27.5775 137.746 27.49 137.581 27.2918Z" fill="#004AAC"/>
<path d="M89.2347 19.675H88.4824V8.43339C88.8581 8.43339 89.2149 8.4051 89.5632 8.44712C89.7073 8.46428 89.8617 8.61095 89.962 8.73789C91.9446 11.2288 93.922 13.7228 95.8942 16.22C95.9894 16.3401 96.0872 16.4585 96.2665 16.6798V8.45998H96.9818V19.9915C96.758 19.7985 96.5838 19.6879 96.4612 19.5352C94.1636 16.6686 91.8697 13.7992 89.5795 10.9269C89.4894 10.8154 89.3925 10.7081 89.2364 10.5263L89.2347 19.675Z" fill="#004AAC"/>
<path d="M128.987 8.75072C128.931 9.14186 128.882 9.47895 128.828 9.86579C128.688 9.82033 128.57 9.78003 128.452 9.74486C127.702 9.51413 126.954 9.27481 126.2 9.05866C124.97 8.7027 123.95 9.16245 123.045 9.943C121.744 11.0649 121.292 12.5566 121.307 14.2172C121.316 15.2679 121.483 16.2963 122.051 17.2081C123.013 18.7521 124.474 19.3276 126.223 19.2985C126.677 19.2907 127.13 19.2127 127.618 19.1672V14.8733H129.226C129.242 14.9736 129.254 15.0747 129.26 15.1761C129.26 16.4413 129.26 17.7065 129.26 18.9708C129.26 19.1724 129.268 19.3439 129.015 19.4177C126.765 20.0696 124.528 20.1939 122.366 19.1355C120.293 18.1208 119.278 16.0313 119.519 13.7059C119.916 9.88895 123.307 8.15287 126.157 8.23522C127.122 8.25786 128.077 8.43182 128.987 8.75072Z" fill="#004AAC"/>
<path d="M107.215 25.2444H107.941C107.957 25.3294 107.968 25.4153 107.973 25.5017C107.973 27.7945 107.979 30.0872 107.965 32.38C107.963 32.856 107.916 33.3308 107.824 33.7978C107.542 35.2123 106.701 36.1258 105.291 36.4852C104.278 36.7456 103.219 36.7694 102.196 36.5547C100.59 36.221 99.564 35.0373 99.4173 33.3235C99.3444 32.4658 99.3461 31.5994 99.341 30.7365C99.3307 28.9224 99.341 27.1083 99.341 25.2624H101.092V25.7316C101.092 28.0389 101.092 30.3463 101.092 32.6536C101.079 32.9661 101.095 33.279 101.14 33.5886C101.448 35.2466 102.401 35.9808 104.166 35.9465C106.017 35.9113 107.122 34.9172 107.173 33.0705C107.24 30.6456 107.206 28.2182 107.214 25.7916C107.216 25.6149 107.215 25.4374 107.215 25.2444Z" fill="#004AAC"/>
<path d="M100.094 8.45227H106.88C106.825 8.82196 106.775 9.16849 106.716 9.56734C105.866 9.42753 105.032 9.31517 104.208 9.14877C103.363 8.97722 102.557 9.09473 101.741 9.34176V13.4495H105.46V14.0945H101.757V19.0772L106.982 18.5625C106.928 18.9468 106.878 19.3045 106.825 19.6776H100.094V8.45227Z" fill="#004AAC"/>
<path d="M75.745 8.77386C75.6884 9.14441 75.6361 9.49352 75.5821 9.84777C74.7852 9.60331 74.0175 9.35029 73.2404 9.13499C72.8804 9.04494 72.5134 8.98526 72.1433 8.95658C71.4666 8.88796 71.0188 9.2139 70.837 9.87608C70.7354 10.2066 70.7306 10.5592 70.823 10.8924C70.9154 11.2255 71.1012 11.5253 71.3585 11.7563C71.8372 12.1989 72.3522 12.6006 72.8982 12.9571C73.4986 13.3637 74.1608 13.6836 74.7603 14.0936C75.4929 14.5945 76.1396 15.1975 76.3755 16.1008C76.8044 17.7356 75.7536 19.3379 73.9403 19.7462C72.3869 20.097 70.8644 19.8319 69.3874 19.3036C68.9671 19.1526 69.2545 18.7735 69.179 18.4836C69.7691 18.6989 70.3163 18.9219 70.8773 19.0994C71.6433 19.3413 72.4273 19.3885 73.2052 19.1509C74.7758 18.6723 75.2424 16.7981 74.0441 15.6727C73.5955 15.2516 73.0474 14.9316 72.525 14.5945C71.8526 14.1605 71.1252 13.8028 70.4862 13.3259C69.6284 12.6852 69.1472 11.8086 69.2948 10.6961C69.4663 9.37773 70.656 8.38016 72.1502 8.26093C73.291 8.1683 74.4636 8.33212 75.745 8.77386Z" fill="#004AAC"/>
<path d="M69.2157 35.3169C69.8976 35.5425 70.5701 35.8512 71.2743 35.9722C71.8994 36.0878 72.5415 36.0747 73.1613 35.9336C74.7816 35.5219 75.2568 33.604 74.0405 32.4632C73.5911 32.042 73.0421 31.7229 72.5197 31.3858C71.8473 30.9518 71.1199 30.5941 70.4817 30.1163C69.624 29.4748 69.1454 28.5964 69.2955 27.4848C69.473 26.1673 70.6619 25.1817 72.1552 25.0522C73.3775 24.9458 74.5457 25.186 75.7414 25.5514C75.6883 25.9203 75.6359 26.2805 75.5828 26.6442C74.7808 26.3963 74.0131 26.1433 73.2342 25.9271C72.8742 25.8373 72.5072 25.7779 72.1372 25.7496C71.4827 25.6827 71.0298 26 70.8454 26.6313C70.6344 27.357 70.812 28.0114 71.3318 28.5184C71.7944 28.9571 72.2953 29.3535 72.8285 29.7029C73.4418 30.1189 74.1151 30.4492 74.7276 30.8643C75.4764 31.3704 76.1386 31.9794 76.3762 32.898C76.8111 34.5792 75.6677 36.2192 73.8029 36.57C72.3027 36.8522 70.8446 36.6112 69.4216 36.112C69.1256 36.0099 69.1213 35.9533 69.2157 35.3169Z" fill="#004AAC"/>
<path d="M148.074 36.0262V35.2543C148.471 35.4164 148.841 35.5794 149.22 35.7192C150.142 36.0623 151.084 36.2338 152.055 35.9499C153.661 35.4799 154.149 33.6066 152.93 32.4649C152.45 32.0146 151.858 31.6775 151.301 31.3172C150.7 30.9312 150.05 30.6242 149.48 30.2021C148.357 29.3718 147.921 28.1907 148.256 27.0954C148.599 25.97 149.739 25.1526 151.075 25.0437C152.282 24.9442 153.436 25.1835 154.623 25.5411C154.575 25.9048 154.526 26.2668 154.474 26.6562C153.796 26.4341 153.148 26.1939 152.485 26.0129C151.997 25.8881 151.5 25.7984 151 25.7444C150.399 25.6724 149.97 25.9529 149.769 26.525C149.52 27.2481 149.649 27.9326 150.181 28.4669C150.636 28.9131 151.131 29.3151 151.662 29.6678C152.298 30.1009 153.001 30.4398 153.635 30.8746C154.415 31.4116 155.108 32.0497 155.295 33.0464C155.606 34.6985 154.499 36.2244 152.722 36.5632C151.126 36.8694 149.589 36.5941 148.074 36.0262Z" fill="#004AAC"/>
<path d="M130.883 8.43416C131.483 8.43416 132.027 8.41616 132.568 8.44875C132.677 8.45561 132.81 8.63659 132.874 8.76611C133.797 10.6434 134.714 12.5239 135.625 14.4075C135.689 14.5379 135.757 14.6648 135.852 14.8501C135.943 14.6786 136.013 14.5585 136.07 14.4332C136.887 12.6371 137.703 10.8407 138.518 9.04402C138.817 8.38613 138.817 8.38528 139.622 8.46676C139.556 8.61172 139.5 8.74381 139.439 8.87333C138.466 10.9405 137.488 13.0059 136.523 15.0783C136.42 15.3049 136.366 15.5502 136.362 15.7988C136.347 17.076 136.354 18.3532 136.354 19.6586H134.69C134.69 19.2006 134.69 18.7306 134.69 18.2597C134.686 17.3376 134.847 16.3726 134.628 15.5063C134.408 14.64 133.81 13.8714 133.373 13.0626C132.617 11.6656 131.86 10.2697 131.1 8.87505C131.035 8.75239 130.975 8.62115 130.883 8.43416Z" fill="#004AAC"/>
<path d="M86.5682 8.45307C85.8889 9.89752 85.3065 11.3497 84.5448 12.7024C83.5275 14.5096 83.0506 16.3907 83.2728 18.4493C83.3156 18.8447 83.2788 19.2495 83.2788 19.6698H81.6387C81.6387 19.2504 81.6387 18.8258 81.6387 18.4021C81.6345 17.4345 81.8017 16.4241 81.5727 15.5132C81.348 14.6194 80.7227 13.826 80.2698 12.9906C79.4575 11.4912 78.6401 9.99358 77.7935 8.43077C78.3939 8.43077 78.942 8.4102 79.4815 8.44708C79.6007 8.4548 79.7448 8.64607 79.8135 8.78503C80.7312 10.6506 81.637 12.5222 82.5462 14.3913C82.6114 14.5251 82.6801 14.6563 82.7813 14.8562C82.867 14.6898 82.9339 14.5705 82.9906 14.4462C83.8037 12.6632 84.6157 10.8796 85.4266 9.09552C85.7379 8.40932 85.7379 8.40932 86.5682 8.45307Z" fill="#004AAC"/>
<path d="M109.512 26.3988C109.473 26.0283 109.436 25.662 109.394 25.2598H118.155C118.126 25.6226 118.097 25.9966 118.069 26.3946C116.907 26.2839 115.823 25.65 114.605 26.0643V36.4628H112.98V26.0789C111.753 25.6397 110.672 26.2779 109.512 26.3988Z" fill="#004AAC"/>
<path d="M92.9736 35.5236C94.5896 36.2595 96.1069 35.4824 97.7135 35.3812C97.656 35.7337 97.5968 36.0897 97.5351 36.4645H91.3447V25.2546H92.9744L92.9736 35.5236Z" fill="#004AAC"/>
<path d="M121.406 36.4714C121.279 36.4774 121.176 36.4851 121.073 36.486C120.688 36.486 120.301 36.486 119.888 36.486V25.2555H121.406V36.4714Z" fill="#004AAC"/>
<path d="M158.27 36.6027C158.099 36.6073 157.929 36.578 157.769 36.5167C157.61 36.4553 157.464 36.363 157.34 36.2452C157.216 36.1273 157.117 35.9861 157.048 35.8298C156.979 35.6734 156.942 35.505 156.938 35.3341C156.934 35.1596 156.966 34.9862 157.03 34.8239C157.094 34.6617 157.19 34.5137 157.312 34.3888C157.434 34.2638 157.579 34.1643 157.74 34.096C157.9 34.0277 158.073 33.9919 158.248 33.9908C158.592 33.9945 158.922 34.1321 159.167 34.3744C159.412 34.6168 159.553 34.9449 159.561 35.2895C159.562 35.6344 159.428 35.966 159.186 36.212C158.944 36.458 158.615 36.5984 158.27 36.6027ZM159.394 35.2826C159.392 35.1305 159.359 34.9804 159.297 34.8412C159.236 34.702 159.147 34.5765 159.037 34.4719C158.926 34.3674 158.796 34.2859 158.653 34.2323C158.511 34.1787 158.359 34.1541 158.207 34.1598C157.907 34.1707 157.623 34.2977 157.415 34.5139C157.207 34.7301 157.091 35.0186 157.092 35.3186C157.101 35.6183 157.225 35.9029 157.439 36.1131C157.653 36.3234 157.939 36.4432 158.239 36.4474C158.391 36.4473 158.542 36.4171 158.683 36.3584C158.824 36.2997 158.952 36.2137 159.059 36.1055C159.166 35.9972 159.251 35.8687 159.309 35.7275C159.366 35.5863 159.395 35.4351 159.394 35.2826Z" fill="#004AAC"/>
<path d="M158.509 35.2328L158.766 36.0125L158.723 36.064C158.628 35.9447 158.541 35.8178 158.437 35.7071C158.339 35.6127 158.235 35.5234 158.128 35.4395C158.082 35.5622 158.031 35.684 157.99 35.8084C157.976 35.8974 157.93 35.9783 157.861 36.0365V34.55C158.155 34.5234 158.487 34.4471 158.656 34.7919C158.704 34.8923 158.556 35.0887 158.499 35.2414C158.548 34.8846 158.505 34.6126 158.016 34.7267V35.3229L158.509 35.2328Z" fill="#004AAC"/>
</g>
<defs>
<clipPath id="clip0_187_1886">
<rect width="159.561" height="45" fill="white"/>
</clipPath>
</defs>
</svg>
